<?xml version="1.0" standalone="no"?><!DOCTYPE svg PUBLIC "-//W3C//DTD SVG 1.1//EN" "http://www.w3.org/Graphics/SVG/1.1/DTD/svg11.dtd"><svg t="1572850658427" class="icon" viewBox="0 0 1024 1024" version="1.1" xmlns="http://www.w3.org/2000/svg" p-id="3848" xmlns:xlink="http://www.w3.org/1999/xlink" width="200" height="200"><defs><style type="text/css"></style></defs><path d="M895.25 235.11L788.89 128.75C768.43 108.29 741.2 97 712.28 97H311.72c-28.93 0-56.15 11.29-76.61 31.75L128.75 235.11C108.29 255.57 97 282.8 97 311.72v506.92C97 878.4 145.6 927 205.36 927h613.29C878.4 927 927 878.4 927 818.64V311.72c0-28.92-11.29-56.15-31.75-76.61z m-630.8-77.02c12.66-12.62 29.42-19.59 47.27-19.59h400.56c17.84 0 34.65 6.97 47.27 19.59l96.61 96.61H167.84l96.61-96.61zM885.5 818.64c0 36.85-30 66.86-66.86 66.86H205.36c-36.85 0-66.86-30-66.86-66.86V311.72c0-5.31 0.62-10.5 1.83-15.52h743.35c1.2 5.02 1.83 10.21 1.83 15.52v506.92z" p-id="3849" fill="#ffffff"></path><path d="M644.33 477.69H379.67c-11.46 0-20.75-9.29-20.75-20.75s9.29-20.75 20.75-20.75h264.67c11.46 0 20.75 9.29 20.75 20.75s-9.29 20.75-20.76 20.75z" p-id="3850" fill="#ffffff"></path></svg>